<svg width="327" height="82" viewBox="0 0 327 82" fill="none" xmlns="http://www.w3.org/2000/svg">
<path d="M48.4626 82C41.4431 82 35.31 80.7946 30.0631 78.3839C24.8872 75.9023 20.5975 72.6762 17.1941 68.7056C13.7907 64.6641 11.2382 60.3035 9.53653 55.6239C7.90575 50.9442 7.09036 46.4419 7.09036 42.1167V39.7769C7.09036 34.9555 7.9412 30.2049 9.64289 25.5253C11.4155 20.7747 14.0389 16.4851 17.5132 12.6563C20.9875 8.8275 25.3126 5.77864 30.4885 3.50973C35.6645 1.16991 41.6559 0 48.4626 0C55.2693 0 61.2607 1.16991 66.4367 3.50973C71.6126 5.77864 75.9377 8.8275 79.412 12.6563C82.8863 16.4851 85.5097 20.7747 87.2823 25.5253C89.0549 30.2049 89.9412 34.9555 89.9412 39.7769V42.1167C89.9412 46.4419 89.0904 50.9442 87.3887 55.6239C85.687 60.3035 83.1345 64.6641 79.7311 68.7056C76.3277 72.6762 72.0026 75.9023 66.7557 78.3839C61.5798 80.7946 55.4821 82 48.4626 82ZM48.4626 65.7276C52.1496 65.7276 55.4466 65.0895 58.3537 63.8132C61.3316 62.537 63.8487 60.7644 65.9049 58.4955C68.032 56.2265 69.6273 53.6031 70.6909 50.6252C71.7544 47.6472 72.2862 44.4565 72.2862 41.0532C72.2862 37.4371 71.719 34.1401 70.5845 31.1621C69.521 28.1133 67.9256 25.4898 65.7985 23.2918C63.7423 21.0229 61.2607 19.2858 58.3537 18.0804C55.4466 16.8751 52.1496 16.2724 48.4626 16.2724C44.7756 16.2724 41.4786 16.8751 38.5715 18.0804C35.6645 19.2858 33.1474 21.0229 31.0203 23.2918C28.9641 25.4898 27.4042 28.1133 26.3407 31.1621C25.2771 34.1401 24.7454 37.4371 24.7454 41.0532C24.7454 44.4565 25.2771 47.6472 26.3407 50.6252C27.4042 53.6031 28.9641 56.2265 31.0203 58.4955C33.1474 60.7644 35.6645 62.537 38.5715 63.8132C41.4786 65.0895 44.7756 65.7276 48.4626 65.7276Z" fill="#6A7EFC"/>
<path d="M111.693 79.9793C107.096 79.9793 103.369 76.2526 103.369 71.6555V12.6918C103.369 6.97454 108.004 2.33982 113.721 2.33982V2.33982L119.982 70.8985C120.428 75.7742 116.589 79.9793 111.693 79.9793V79.9793Z" fill="#6A7EFC"/>
<path d="M146.553 79.9793C142.089 79.9793 138.47 76.3604 138.47 71.8962V23.8591C138.47 11.9743 148.104 2.33982 159.989 2.33982V2.33982L196 65.2627C196.203 65.616 196.578 65.834 196.986 65.834H198.406C198.947 65.834 199.203 66.5007 198.801 66.8623V66.8623C198.421 67.204 197.816 66.9346 197.816 66.4239V11.6282C197.816 6.49837 201.975 2.33982 207.105 2.33982V2.33982L212.541 61.8649C213.429 71.591 205.772 79.9793 196.005 79.9793V79.9793C189.524 79.9793 183.636 76.2084 180.924 70.3219L156.423 17.133C156.242 16.7381 155.846 16.4851 155.412 16.4851H154.046C153.505 16.4851 153.25 15.8184 153.652 15.4567V15.4567C154.031 15.1151 154.636 15.3845 154.636 15.8952V71.8962C154.636 76.3604 151.017 79.9793 146.553 79.9793V79.9793Z" fill="#6A7EFC"/>
<path d="M240.171 79.9793C235.574 79.9793 231.848 76.2526 231.848 71.6555V12.6917C231.848 6.97454 236.482 2.33982 242.199 2.33982V2.33982L248.461 70.8985C248.906 75.7742 245.067 79.9793 240.171 79.9793V79.9793Z" fill="#6A7EFC"/>
<path d="M270.706 79.9793C265.723 79.9793 262.71 74.4718 265.396 70.2752L279.574 48.1249C283.275 42.3434 283.201 34.9191 279.385 29.2127L268.117 12.36C265.256 8.08056 268.323 2.33982 273.471 2.33982V2.33982L294.937 25.794C295.4 26.3004 296.055 26.5888 296.742 26.5888V26.5888C297.592 26.5888 298.381 26.1472 298.826 25.4225L306.971 12.1584C310.717 6.05758 317.363 2.33982 324.522 2.33982V2.33982L314.11 24.1923C309.375 34.1322 309.526 45.7082 314.52 55.5209L326.968 79.9793V79.9793C319.389 79.9793 312.329 76.1269 308.228 69.7531L297.906 53.7099C297.437 52.9804 296.629 52.5396 295.761 52.5396V52.5396C295.024 52.5396 294.322 52.8588 293.838 53.415L270.706 79.9793V79.9793Z" fill="#6A7EFC"/>
<path d="M41.3722 82C34.3528 82 28.2196 80.7946 22.9728 78.3839C17.7968 75.9023 13.5071 72.6762 10.1038 68.7056C6.70039 64.6641 4.14786 60.3035 2.44617 55.6239C0.815391 50.9442 0 46.4419 0 42.1167V39.7769C0 34.9555 0.850843 30.2049 2.55253 25.5253C4.32512 20.7747 6.94855 16.4851 10.4228 12.6563C13.8971 8.8275 18.2222 5.77864 23.3982 3.50973C28.5741 1.16991 34.5655 0 41.3722 0C48.179 0 54.1703 1.16991 59.3463 3.50973C64.5223 5.77864 68.8474 8.8275 72.3217 12.6563C75.7959 16.4851 78.4194 20.7747 80.192 25.5253C81.9645 30.2049 82.8508 34.9555 82.8508 39.7769V42.1167C82.8508 46.4419 82 50.9442 80.2983 55.6239C78.5966 60.3035 76.0441 64.6641 72.6407 68.7056C69.2373 72.6762 64.9122 75.9023 59.6654 78.3839C54.4894 80.7946 48.3917 82 41.3722 82ZM41.3722 65.7276C45.0592 65.7276 48.3562 65.0895 51.2633 63.8132C54.2412 62.537 56.7583 60.7644 58.8145 58.4955C60.9416 56.2265 62.537 53.6031 63.6005 50.6252C64.6641 47.6472 65.1958 44.4565 65.1958 41.0532C65.1958 37.4371 64.6286 34.1401 63.4942 31.1621C62.4306 28.1133 60.8353 25.4898 58.7082 23.2918C56.652 21.0229 54.1703 19.2858 51.2633 18.0804C48.3562 16.8751 45.0592 16.2724 41.3722 16.2724C37.6853 16.2724 34.3882 16.8751 31.4812 18.0804C28.5741 19.2858 26.0571 21.0229 23.93 23.2918C21.8738 25.4898 20.3139 28.1133 19.2503 31.1621C18.1868 34.1401 17.655 37.4371 17.655 41.0532C17.655 44.4565 18.1868 47.6472 19.2503 50.6252C20.3139 53.6031 21.8738 56.2265 23.93 58.4955C26.0571 60.7644 28.5741 62.537 31.4812 63.8132C34.3882 65.0895 37.6853 65.7276 41.3722 65.7276Z" fill="#020A3E"/>
<path d="M105 79.9793C100.184 79.9793 96.279 76.0747 96.279 71.2581V19.7821C96.279 10.149 104.088 2.33982 113.721 2.33982V2.33982V71.2581C113.721 76.0747 109.817 79.9793 105 79.9793V79.9793Z" fill="#020A3E"/>
<path d="M139.463 79.9793C134.999 79.9793 131.38 76.3604 131.38 71.8962V30.9494C131.38 15.1488 144.189 2.33982 159.989 2.33982V2.33982L188.658 64.5779C189.011 65.3435 189.777 65.834 190.62 65.834V65.834C191.841 65.834 192.819 64.8224 192.778 63.6021L191.274 18.7094C190.974 9.75876 198.149 2.33982 207.105 2.33982V2.33982V62.4085C207.105 72.1125 199.238 79.9793 189.534 79.9793V79.9793C182.676 79.9793 176.444 75.9889 173.575 69.7598L149.278 17.013C149.13 16.6912 148.808 16.4851 148.453 16.4851V16.4851C147.952 16.4851 147.546 16.0787 147.546 15.5774V14.5707V71.8962C147.546 76.3604 143.927 79.9793 139.463 79.9793V79.9793Z" fill="#020A3E"/>
<path d="M233.478 79.9793C228.662 79.9793 224.757 76.0747 224.757 71.2581V19.7821C224.757 10.149 232.566 2.33982 242.199 2.33982V2.33982V71.2581C242.199 76.0747 238.295 79.9793 233.478 79.9793V79.9793Z" fill="#020A3E"/>
<path d="M270.706 79.9793C262.657 79.9793 257.789 71.0826 262.128 64.3035L272.484 48.1249C276.185 42.3434 276.11 34.9191 272.295 29.2127L264.968 18.2542C260.424 11.4575 265.295 2.33982 273.471 2.33982V2.33982L287.93 25.5545C288.33 26.1978 289.034 26.5888 289.792 26.5888V26.5888C290.555 26.5888 291.263 26.1927 291.662 25.5427L298.465 14.4643C303.091 6.93072 311.297 2.33982 320.137 2.33982H324.522L312.825 20.2488C305.026 32.1915 305.143 47.6456 313.123 59.4684L326.968 79.9793H324.032C313.864 79.9793 304.392 74.8108 298.89 66.2594L290.744 53.5988C290.319 52.9386 289.588 52.5396 288.803 52.5396V52.5396C288 52.5396 287.254 52.9572 286.835 53.6422L270.706 79.9793V79.9793Z" fill="#020A3E"/>
</svg>
